<svg width="1080" height="1080" viewBox="0 0 1080 1080" fill="none" xmlns="http://www.w3.org/2000/svg">
<rect width="1080" height="1080" fill="#1E1E1E"/>
<g clip-path="url(#clip0_0_1)">
<path d="M1080 0H0V1080H1080V0Z" fill="#1E1E1E"/>
<mask id="mask0_0_1" style="mask-type:luminance" maskUnits="userSpaceOnUse" x="0" y="0" width="1080" height="1080">
<path d="M1080 0H0V1080H1080V0Z" fill="white"/>
</mask>
<g mask="url(#mask0_0_1)">
<path d="M1080 0H0V1080H1080V0Z" fill="white"/>
<mask id="mask1_0_1" style="mask-type:luminance" maskUnits="userSpaceOnUse" x="0" y="0" width="1080" height="1080">
<path d="M1080 0H0V1080H1080V0Z" fill="white"/>
</mask>
<g mask="url(#mask1_0_1)">
<path d="M0 0C356.4 0 712.8 0 1080 0C1080 356.4 1080 712.8 1080 1080C723.6 1080 367.2 1080 0 1080C0 723.6 0 367.2 0 0Z" fill="#141B25"/>
<path d="M444.767 39.0084C451.361 39.0084 457.955 39.0083 464.748 39C486.435 39.0083 508.121 39.0749 529.799 39.1497C544.883 39.1663 559.958 39.1746 575.034 39.183C614.639 39.2162 654.245 39.3077 693.85 39.3992C734.296 39.4906 774.741 39.5322 815.187 39.5738C894.489 39.6652 973.792 39.8149 1053.09 40.0062C1046.35 58.1916 1039.54 76.3523 1032.71 94.5045C1028.92 104.624 1025.14 114.744 1021.24 125.163C996.085 185.64 965.36 225.47 905.1 252.336C895.87 255.762 895.87 255.762 886.457 259.255C875.988 263.753 875.988 263.753 865.303 268.351C820.907 280.267 778.533 278.953 732.782 278.504C723.12 278.479 713.466 278.454 703.513 278.43C672.771 278.33 642.038 278.114 611.305 277.889C590.417 277.798 569.529 277.723 548.641 277.648C497.544 277.457 446.438 277.166 395.341 276.792C395.532 283.386 395.732 289.979 395.931 296.773C396.081 305.437 396.231 314.102 396.389 323.024C396.588 331.606 396.779 340.187 396.979 349.034C394.46 386.345 378.552 406.526 354.779 434.108C345.94 445.217 337.126 456.351 328.328 467.51C323.589 473.414 318.849 479.326 313.959 485.421C285.879 521.509 260.193 559.302 234.191 596.895C214.85 624.685 195.475 652.45 176.093 680.214C171.777 686.434 167.47 692.646 163.029 699.057C152.984 713.392 142.649 727.528 132.238 741.606C129.344 741.606 126.451 741.606 123.474 741.606C122.127 674.834 121.212 608.08 120.58 541.3C120.314 518.624 119.956 495.948 119.499 473.273C118.859 440.527 118.559 407.798 118.335 375.044C117.927 360.035 117.927 360.036 117.512 344.719C117.478 262.531 140.021 194.321 195.5 132.322C267.835 62.4908 345.99 38.5011 444.767 39.0084Z" fill="#21CEEA"/>
<path d="M424.586 465.514C432.626 465.589 440.676 465.673 448.958 465.747C458.088 465.756 467.218 465.756 476.622 465.756C491.382 466.03 491.382 466.03 506.441 466.304C516.527 466.354 526.606 466.404 537 466.454C569.263 466.654 601.518 467.094 633.773 467.543C655.625 467.718 677.478 467.876 699.33 468.018C752.939 468.408 806.547 468.999 860.147 469.73C849.894 536.743 822.637 606.425 772.446 653.905C709.899 691.24 657.779 707.73 584.821 707.381C574.277 707.356 563.733 707.322 552.873 707.297C541.947 707.222 531.021 707.147 519.762 707.072C508.67 707.031 497.577 706.99 486.144 706.948C458.795 706.848 431.454 706.707 404.114 706.524C404.272 714.215 404.43 721.899 404.596 729.823C404.712 739.984 404.837 750.146 404.97 760.615C405.128 770.659 405.286 780.696 405.452 791.04C402.401 858.202 372.407 913.898 326.856 962.393C254.422 1022.69 177.223 1041.2 85.0987 1040.33C74.1808 1040.25 63.2628 1040.17 52.0123 1040.09C43.7552 1039.99 35.5065 1039.89 27 1039.78C38.2173 1009.21 51.2556 984.171 70.1644 957.703C75.4529 950.219 80.7415 942.744 86.188 935.036C91.9837 926.912 97.7712 918.796 103.742 910.422C175.702 808.377 245.001 704.67 313.984 600.588C318.026 594.501 322.067 588.406 326.233 582.136C333.825 570.686 341.416 559.227 348.992 547.761C358.513 533.392 368.15 519.098 377.804 504.812C381.596 498.543 385.396 492.273 389.304 485.812C404.113 469.73 404.113 469.73 424.586 465.514Z" fill="#21CEEA"/>
</g>
</g>
</g>
<defs>
<clipPath id="clip0_0_1">
<rect width="1080" height="1080" fill="white"/>
</clipPath>
</defs>
</svg>
