<svg width="1080" height="1080" viewBox="0 0 1080 1080" fill="none" xmlns="http://www.w3.org/2000/svg">
<rect width="1080" height="1080" fill="#1E1E1E"/>
<g clip-path="url(#clip0_0_1)">
<rect width="1080" height="1080" fill="white"/>
<g clip-path="url(#clip1_0_1)">
<path d="M0 0C356.4 0 712.8 0 1080 0C1080 356.4 1080 712.8 1080 1080C723.6 1080 367.2 1080 0 1080C0 723.6 0 367.2 0 0Z" fill="#141B25"/>
<path d="M255.905 456.56C256.698 456.56 257.491 456.56 258.308 456.559C260.916 456.56 263.524 456.568 266.131 456.577C267.945 456.579 269.758 456.58 271.571 456.581C276.334 456.585 281.097 456.596 285.86 456.607C290.724 456.618 295.588 456.623 300.452 456.628C309.989 456.639 319.526 456.657 329.063 456.68C328.252 458.867 327.433 461.051 326.611 463.234C326.156 464.451 325.701 465.668 325.232 466.921C322.207 474.194 318.512 478.984 311.265 482.215C310.155 482.627 310.155 482.627 309.023 483.047C307.764 483.588 307.764 483.588 306.479 484.141C301.14 485.574 296.044 485.416 290.542 485.362C289.38 485.359 288.219 485.356 287.022 485.353C283.325 485.341 279.629 485.315 275.933 485.288C273.421 485.277 270.909 485.268 268.397 485.259C262.252 485.236 256.106 485.201 249.961 485.156C249.984 485.949 250.008 486.742 250.032 487.559C250.05 488.601 250.068 489.643 250.087 490.716C250.111 491.748 250.134 492.78 250.158 493.844C249.855 498.331 247.942 500.758 245.083 504.075C244.02 505.411 242.96 506.75 241.902 508.092C241.332 508.802 240.762 509.513 240.174 510.246C236.797 514.586 233.708 519.131 230.581 523.652C228.255 526.994 225.925 530.333 223.594 533.672C223.075 534.42 222.557 535.167 222.023 535.938C220.815 537.662 219.572 539.362 218.32 541.055C217.972 541.055 217.624 541.055 217.266 541.055C217.104 533.025 216.994 524.997 216.918 516.966C216.886 514.239 216.843 511.512 216.788 508.785C216.711 504.847 216.675 500.911 216.648 496.972C216.599 495.167 216.599 495.167 216.549 493.325C216.545 483.441 219.256 475.238 225.928 467.782C234.627 459.384 244.026 456.499 255.905 456.56Z" fill="#21CEEA"/>
<path d="M253.478 507.852C254.445 507.861 255.413 507.871 256.409 507.88C257.507 507.881 258.605 507.881 259.736 507.881C261.511 507.914 261.511 507.914 263.322 507.947C264.535 507.953 265.747 507.959 266.997 507.965C270.877 507.989 274.756 508.042 278.635 508.096C281.263 508.117 283.891 508.136 286.519 508.153C292.966 508.2 299.413 508.271 305.859 508.359C304.626 516.418 301.348 524.798 295.312 530.508C287.79 534.998 281.522 536.981 272.748 536.939C271.48 536.936 270.212 536.932 268.906 536.929C267.592 536.92 266.278 536.911 264.924 536.902C263.59 536.897 262.256 536.892 260.881 536.887C257.592 536.875 254.304 536.858 251.016 536.836C251.035 537.761 251.054 538.685 251.074 539.638C251.088 540.86 251.103 542.082 251.119 543.341C251.138 544.549 251.157 545.756 251.177 547C250.81 555.077 247.203 561.775 241.725 567.607C233.014 574.859 223.73 577.084 212.651 576.98C211.338 576.97 210.025 576.961 208.672 576.951C207.679 576.939 206.687 576.927 205.664 576.914C207.013 573.237 208.581 570.226 210.855 567.043C211.491 566.143 212.127 565.244 212.782 564.317C213.479 563.34 214.175 562.364 214.893 561.357C223.547 549.085 231.881 536.613 240.177 524.096C240.663 523.364 241.149 522.631 241.65 521.877C242.563 520.5 243.476 519.122 244.387 517.743C245.532 516.015 246.691 514.296 247.852 512.578C248.308 511.824 248.765 511.07 249.235 510.293C251.016 508.359 251.016 508.359 253.478 507.852Z" fill="#319EE7"/>
<path d="M773.086 475.664C775.522 475.664 777.959 475.664 780.469 475.664C780.469 496.547 780.469 517.43 780.469 538.945C777.684 538.945 774.9 538.945 772.031 538.945C771.509 536.857 771.509 536.857 770.977 534.727C769.653 535.754 769.653 535.754 768.303 536.803C762.481 540.669 755.511 539.655 748.828 538.945C742.861 537.248 738.501 532.383 735.117 527.344C732.189 521.227 731.827 514.597 733.696 508.063C736.665 501.436 742.099 496.34 748.828 493.594C756.335 492.577 763.59 493.409 769.922 497.812C770.444 499.379 770.444 499.379 770.977 500.977C771.673 500.977 772.369 500.977 773.086 500.977C773.086 492.623 773.086 484.27 773.086 475.664Z" fill="#838685"/>
<path d="M601.765 492.473C607.936 496.062 611.6 501.674 613.828 508.359C613.828 511.84 613.828 515.32 613.828 518.906C601.298 518.906 588.769 518.906 575.859 518.906C578.981 525.667 578.981 525.667 584.297 528.398C587.332 528.771 587.332 528.771 590.559 528.728C591.634 528.746 592.71 528.763 593.818 528.782C597.355 528.349 599.28 527.168 602.227 525.234C605.378 525.33 606.41 526.259 608.818 528.333C610.664 530.508 610.664 530.508 610.664 532.617C609.272 533.903 609.272 533.903 607.368 535.254C606.45 535.923 606.45 535.923 605.514 536.605C598.482 540.654 591.145 540.883 583.242 540C575.469 537.685 569.788 533.003 565.312 526.289C562.221 519.951 562.042 512.71 563.854 505.92C566.693 499.489 571.951 495.068 577.763 491.307C584.908 488.599 594.872 489.431 601.765 492.473Z" fill="#1ED0ED"/>
<path d="M680.076 490.166C680.8 490.144 681.524 490.123 682.269 490.1C688.442 490.053 693.416 491.199 698.162 495.444C698.654 496.073 699.146 496.703 699.653 497.351C700.162 497.983 700.67 498.615 701.194 499.267C703.945 503.098 703.612 506.587 703.58 511.136C703.578 511.929 703.577 512.722 703.575 513.539C703.569 516.075 703.556 518.611 703.542 521.147C703.537 522.865 703.532 524.583 703.528 526.301C703.516 530.516 703.498 534.731 703.477 538.945C699.648 538.945 695.819 538.945 691.875 538.945C691.527 537.553 691.179 536.161 690.82 534.727C690.127 535.298 690.127 535.298 689.42 535.88C683.971 539.867 679.519 540.817 672.796 540.511C668.077 539.725 664.746 538.019 661.289 534.727C658.126 530.179 657.439 526.5 658.125 521.016C660.747 515.771 663.235 513.586 668.672 511.523C672.506 511.154 676.295 511.224 680.142 511.326C681.169 511.34 682.197 511.354 683.256 511.369C685.778 511.406 688.299 511.458 690.82 511.523C689.653 506.296 689.653 506.296 686.602 502.097C680.653 499.99 675.014 500.011 669.265 502.625C668.373 503.125 667.481 503.625 666.562 504.141C663.398 503.086 663.398 503.086 661.553 500.581C660.234 497.813 660.234 497.813 661.289 494.648C667.635 490.982 672.836 490.22 680.076 490.166Z" fill="#1ED0EE"/>
<path d="M369.141 475.664C384.803 475.664 400.465 475.664 416.602 475.664C416.602 478.796 416.602 481.929 416.602 485.156C405.116 485.156 393.63 485.156 381.797 485.156C381.797 491.421 381.797 497.686 381.797 504.141C392.238 504.141 402.68 504.141 413.438 504.141C413.438 507.621 413.438 511.102 413.438 514.688C402.996 514.688 392.555 514.688 381.797 514.688C381.797 522.693 381.797 530.698 381.797 538.945C377.62 538.945 373.444 538.945 369.141 538.945C369.141 518.063 369.141 497.18 369.141 475.664Z" fill="#1DD5F1"/>
<path d="M453.516 490.43C457.692 490.43 461.869 490.43 466.172 490.43C466.187 491.361 466.203 492.291 466.218 493.251C466.283 496.72 466.361 500.189 466.449 503.658C466.484 505.157 466.513 506.655 466.537 508.154C466.573 510.315 466.628 512.474 466.687 514.634C466.714 515.932 466.742 517.23 466.771 518.567C467.258 522.31 468.139 524.345 470.391 527.344C473.631 528.964 476.299 528.637 479.883 528.398C484.284 526.771 484.284 526.771 487.415 523.454C488.617 520.216 488.666 517.364 488.757 513.913C488.798 512.547 488.839 511.18 488.881 509.772C488.914 508.335 488.947 506.897 488.979 505.459C489.02 504.005 489.061 502.55 489.103 501.096C489.203 497.541 489.293 493.985 489.375 490.43C493.552 490.43 497.728 490.43 502.031 490.43C502.031 506.44 502.031 522.45 502.031 538.945C498.203 538.945 494.374 538.945 490.43 538.945C490.43 537.205 490.43 535.465 490.43 533.672C489.734 533.672 489.037 533.672 488.32 533.672C488.32 534.368 488.32 535.064 488.32 535.781C481.36 540.065 475.372 541.279 467.227 540C462.407 538.049 458.154 535.144 455.625 530.508C453.66 525.579 453.267 521.469 453.31 516.179C453.314 515.069 453.314 515.069 453.319 513.936C453.33 511.594 453.357 509.252 453.384 506.909C453.394 505.312 453.404 503.715 453.413 502.118C453.436 498.222 453.472 494.326 453.516 490.43Z" fill="#1DD0ED"/>
<path d="M824.193 494.55C829.669 497.816 834.321 502.221 836.367 508.359C836.367 511.84 836.367 515.32 836.367 518.906C824.186 518.906 812.004 518.906 799.453 518.906C803.185 527.322 803.185 527.322 810 531.562C816.499 532.594 821.05 531.14 826.875 528.398C828.267 528.398 829.659 528.398 831.094 528.398C833.203 530.508 833.203 530.508 833.203 533.672C825.308 539.663 817.556 540.088 807.891 538.945C801.557 537.22 797.861 533.704 794.18 528.398C791.058 522 791.315 515.319 792.07 508.359C794.357 501.787 798.94 498.185 804.727 494.648C810.775 492.632 818.165 492.326 824.193 494.55Z" fill="#848685"/>
<path d="M510.469 490.43C515.289 489.546 519.392 489.268 524.18 490.43C528.72 494.057 531.74 499.232 534.727 504.141C537.978 501.041 540.484 498.207 542.703 494.319C544.264 492.123 544.264 492.123 546.328 490.43C550.634 489.707 554.661 489.926 558.984 490.43C557.641 494.14 556.091 497.03 553.67 500.14C552.752 501.328 552.752 501.328 551.816 502.54C551.18 503.351 550.543 504.162 549.888 504.998C548.921 506.245 548.921 506.245 547.935 507.517C546.35 509.56 544.76 511.598 543.164 513.633C547.507 520.327 552.155 526.721 557.027 533.037C558.984 535.781 558.984 535.781 560.039 538.945C555.188 539.903 551.141 540.203 546.328 538.945C541.715 534.977 538.741 529.417 535.781 524.18C532.304 527.443 529.962 530.268 527.871 534.529C526.314 537.017 526.314 537.017 524.18 538.945C519.511 539.77 515.159 539.509 510.469 538.945C512.207 535.047 514.618 531.856 517.192 528.464C518.005 527.389 518.818 526.314 519.656 525.206C522.07 522.07 522.07 522.07 524.55 519.364C526.566 516.966 526.566 516.966 526.079 514.304C525.133 511.189 523.869 509.247 521.901 506.662C520.907 505.338 520.907 505.338 519.893 503.988C518.85 502.628 518.85 502.628 517.786 501.24C516.409 499.423 515.034 497.605 513.662 495.786C513.05 494.985 512.438 494.185 511.807 493.36C510.469 491.484 510.469 491.484 510.469 490.43Z" fill="#1FD5F1"/>
<path d="M305.859 508.359C305.241 516.19 301.023 525.106 295.312 530.508C286.924 536.234 279.253 536.443 269.341 536.111C267.98 536.087 266.619 536.063 265.217 536.039C261.888 535.977 258.562 535.891 255.234 535.781C255.878 534.433 256.529 533.088 257.183 531.744C257.545 530.994 257.907 530.245 258.279 529.473C259.959 526.426 262.125 524.354 264.727 522.07C265.531 521.352 266.336 520.635 267.166 519.895C278.422 511.78 292.126 508.123 305.859 508.359Z" fill="#18CCEC"/>
<path d="M765.637 502.229C770.034 506.093 772.908 509.464 773.415 515.347C773.332 520.431 771.792 524.267 768.867 528.398C765.206 531.885 762.268 532.918 757.331 533.21C751.804 532.977 748.486 531.209 744.609 527.344C740.804 523.17 740.914 518.691 741.074 513.274C741.745 508.2 744.17 505.499 747.839 502.163C753.582 499.964 759.929 499.921 765.637 502.229Z" fill="#171E28"/>
<path d="M624.375 490.43C628.204 490.43 632.032 490.43 635.977 490.43C636.325 492.17 636.673 493.91 637.031 495.703C637.858 495.029 638.684 494.354 639.536 493.66C644.258 489.95 646.98 490.335 652.852 490.43C652.852 493.91 652.852 497.391 652.852 500.977C650.242 501.354 647.633 501.732 645.024 502.11C641.343 503.431 640.217 505.102 638.086 508.359C637.415 511.815 637.415 511.815 637.443 515.565C637.409 516.928 637.375 518.291 637.34 519.695C637.325 521.124 637.31 522.553 637.295 523.982C637.265 525.432 637.234 526.881 637.2 528.33C637.126 531.869 637.07 535.406 637.031 538.945C632.855 538.945 628.678 538.945 624.375 538.945C624.375 522.935 624.375 506.925 624.375 490.43Z" fill="#21D1EE"/>
<path d="M427.148 472.5C430.977 472.5 434.805 472.5 438.75 472.5C438.75 494.427 438.75 516.354 438.75 538.945C434.921 538.945 431.093 538.945 427.148 538.945C427.148 517.018 427.148 495.091 427.148 472.5Z" fill="#1CD9F8"/>
<path d="M839.531 493.594C842.316 493.594 845.1 493.594 847.969 493.594C848.631 495.119 848.631 495.119 849.307 496.675C850.942 500.436 852.58 504.196 854.219 507.955C854.929 509.585 855.638 511.214 856.346 512.845C857.362 515.183 858.382 517.521 859.401 519.858C859.719 520.591 860.036 521.324 860.364 522.079C861.689 525.483 861.689 525.483 863.789 528.398C868.662 516.913 873.534 505.427 878.555 493.594C880.991 493.594 883.427 493.594 885.938 493.594C883.53 502.948 879.684 511.622 875.786 520.422C874.839 522.575 873.893 524.729 872.948 526.883C872.099 528.818 871.245 530.752 870.391 532.685C869.021 535.759 869.021 535.759 868.008 538.945C864.875 538.945 861.743 538.945 858.516 538.945C858.128 538.048 857.74 537.15 857.341 536.225C855.877 532.838 854.413 529.451 852.947 526.064C852.318 524.609 851.689 523.154 851.06 521.698C850.148 519.585 849.234 517.472 848.319 515.359C848.021 514.67 847.723 513.981 847.416 513.271C845.169 508.097 842.832 502.97 840.432 497.865C839.531 495.703 839.531 495.703 839.531 493.594Z" fill="#858685"/>
<path d="M252.904 508.233C253.726 508.235 254.548 508.237 255.395 508.24C256.789 508.24 256.789 508.24 258.21 508.24C259.22 508.245 260.23 508.251 261.27 508.256C262.813 508.259 262.813 508.259 264.387 508.261C267.686 508.267 270.985 508.28 274.285 508.293C276.516 508.299 278.746 508.304 280.977 508.308C286.459 508.32 291.94 508.337 297.422 508.359C297.422 508.707 297.422 509.055 297.422 509.414C296.117 509.675 294.812 509.936 293.467 510.205C284.023 512.343 275.587 514.946 267.722 520.731C265.781 522.07 265.781 522.07 262.617 523.125C261.535 524.934 261.535 524.934 260.508 527.344C259.116 529.78 257.723 532.216 256.289 534.727C263.946 535.075 271.603 535.423 279.492 535.781C279.492 536.129 279.492 536.477 279.492 536.836C270.095 536.836 260.698 536.836 251.016 536.836C250.82 532.333 250.624 527.83 250.422 523.191C250.358 521.769 250.293 520.347 250.226 518.882C250.181 517.771 250.135 516.66 250.089 515.516C250.039 514.372 249.989 513.229 249.938 512.051C249.969 508.43 249.969 508.43 252.904 508.233Z" fill="#2B7BD8"/>
<path d="M819.492 499.922C825.205 502.617 827.388 506.018 830.039 511.523C830.039 512.22 830.039 512.916 830.039 513.633C819.946 513.633 809.852 513.633 799.453 513.633C800.55 507.052 800.973 506.057 805.781 502.031C810.289 499.373 814.372 499.218 819.492 499.922Z" fill="#192029"/>
<path d="M594.844 499.922C597.924 501.336 598.923 502.473 601.172 505.195C601.52 507.284 601.868 509.372 602.227 511.523C593.177 511.523 584.128 511.523 574.805 511.523C577.399 503.742 577.399 503.742 581.162 500.894C585.57 498.834 590.141 499.057 594.844 499.922Z" fill="#16232E"/>
<path d="M682.581 518.774C683.371 518.784 684.162 518.793 684.976 518.803C686.924 518.828 688.872 518.866 690.82 518.906C690.977 522.441 690.977 522.441 690.82 526.289C687.111 529.998 684.571 531.489 679.351 531.826C676.547 531.77 674.985 531.556 672.363 530.442C670.781 528.398 670.781 528.398 670.32 524.641C670.472 523.445 670.624 522.248 670.781 521.016C674.78 518.35 677.962 518.67 682.581 518.774Z" fill="#171E28"/>
<path d="M719.824 528.135C722.461 528.398 722.461 528.398 724.57 530.508C724.9 534.199 724.9 534.199 724.57 537.891C721.406 540 721.406 540 718.638 539.67C716.133 538.945 716.133 538.945 715.078 537.891C714.88 534.265 714.88 534.265 715.078 530.508C717.188 528.398 717.188 528.398 719.824 528.135Z" fill="#808585"/>
<path d="M248.906 510.469C249.602 510.469 250.298 510.469 251.016 510.469C251.016 521.258 251.016 532.048 251.016 543.164C250.668 543.164 250.32 543.164 249.961 543.164C249.613 534.811 249.265 526.458 248.906 517.852C244.58 522.044 244.58 522.044 241.194 526.619C240.607 527.554 240.019 528.489 239.414 529.453C239.066 528.757 238.718 528.061 238.359 527.344C239.174 525.555 239.174 525.555 240.489 523.446C240.959 522.692 241.429 521.937 241.913 521.16C242.415 520.373 242.917 519.585 243.435 518.774C243.925 517.979 244.415 517.184 244.92 516.364C247.676 511.992 247.676 511.992 248.906 510.469Z" fill="#1CC5ED"/>
<path d="M324.844 463.008C325.898 466.172 325.898 466.172 324.728 468.714C324.157 469.637 323.586 470.56 322.998 471.511C322.438 472.437 321.878 473.363 321.301 474.317C319.57 476.719 319.57 476.719 316.406 478.828C316.058 477.784 315.71 476.74 315.352 475.664C316.396 475.664 317.44 475.664 318.516 475.664C318.516 474.62 318.516 473.576 318.516 472.5C319.57 471.445 320.625 470.391 321.68 469.336C322.783 467.252 323.846 465.145 324.844 463.008Z" fill="#1EDFE2"/>
<path d="M510.469 490.43C514.993 490.43 519.518 490.43 524.18 490.43C524.18 490.778 524.18 491.126 524.18 491.484C520.987 491.742 520.987 491.742 517.794 491.999C515.325 492.406 515.325 492.406 513.633 495.703C512.589 493.963 511.545 492.223 510.469 490.43Z" fill="#1EC7E8"/>
<path d="M232.031 464.062C230.459 468.065 228.069 469.98 224.648 472.5C225.235 468.396 227.453 464.062 232.031 464.062Z" fill="#12C7E4"/>
</g>
</g>
<defs>
<clipPath id="clip0_0_1">
<rect width="1080" height="1080" fill="white"/>
</clipPath>
<clipPath id="clip1_0_1">
<rect width="1080" height="1080" fill="white"/>
</clipPath>
</defs>
</svg>
